<?xml version="1.0" encoding="UTF-8" standalone="no"?>
<!DOCTYPE svg PUBLIC "-//W3C//DTD SVG 1.1//EN" "http://www.w3.org/Graphics/SVG/1.1/DTD/svg11.dtd">
<svg xmlns="http://www.w3.org/2000/svg" version="1.1" viewBox="0.00 0.00 70.00 70.00">
<g stroke-width="2.00" fill="none" stroke-linecap="butt">
<path stroke="#792542" vector-effect="non-scaling-stroke" d="
  M 17.81 42.64
  Q 17.52 42.58 17.46 42.97
  A 0.46 0.42 -56.4 0 0 17.50 43.23
  C 18.54 45.38 21.86 50.15 24.68 50.41
  C 28.25 50.74 28.49 53.22 30.97 54.83
  Q 33.24 56.31 34.50 58.57
  A 0.44 0.44 0.0 0 0 35.29 58.53
  Q 35.90 57.13 37.20 56.20
  Q 39.70 54.41 41.71 52.11
  Q 43.20 50.41 45.24 50.51
  Q 45.83 50.54 46.33 50.21
  Q 50.33 47.63 52.55 43.10
  A 0.35 0.34 9.2 0 0 52.19 42.61
  Q 52.04 42.63 51.88 42.67
  Q 50.79 42.96 51.58 42.15
  C 55.17 38.50 52.88 34.44 51.57 30.49
  A 1.80 1.76 48.8 0 1 51.64 29.19
  Q 54.98 21.92 53.74 13.92
  A 0.92 0.92 0.0 0 0 52.30 13.31
  Q 47.76 16.54 42.59 20.34
  Q 41.33 21.27 40.49 21.07
  C 36.73 20.21 33.01 20.28 29.28 21.03
  A 1.78 1.77 57.5 0 1 27.86 20.71
  L 17.57 13.13
  A 0.67 0.67 0.0 0 0 16.63 13.28
  Q 16.14 13.96 16.01 14.83
  Q 14.96 21.83 18.28 29.37
  A 1.64 1.62 -46.8 0 1 18.31 30.61
  Q 17.12 33.74 16.42 36.60
  Q 15.76 39.29 18.18 42.01
  Q 18.97 42.91 17.81 42.64"
/>
<path stroke="#792542" vector-effect="non-scaling-stroke" d="
  M 39.73 49.52
  Q 39.90 49.25 40.15 49.09
  Q 40.64 48.77 40.61 48.18
  Q 40.60 48.00 40.44 47.93
  Q 39.75 47.64 40.37 47.23
  C 44.30 44.61 48.42 43.45 51.48 39.58
  C 53.28 37.30 51.10 33.21 49.94 31.10
  C 49.01 29.39 47.17 28.63 46.13 27.01
  C 45.41 25.88 44.05 25.30 42.84 24.82
  A 0.57 0.57 0.0 0 1 42.66 23.87
  Q 47.10 19.67 51.29 15.19
  Q 51.44 15.03 51.28 14.87
  L 51.28 14.86
  Q 51.15 14.73 51.02 14.85
  Q 46.46 18.63 41.61 22.55
  A 1.41 1.41 0.0 0 1 40.30 22.79
  Q 34.99 21.08 29.58 22.76
  A 1.28 1.27 55.4 0 1 28.41 22.54
  L 19.15 15.00
  A 0.25 0.24 40.4 0 0 18.82 15.02
  L 18.64 15.21
  Q 18.61 15.25 18.66 15.29
  L 26.92 23.37
  Q 28.06 24.49 26.56 25.05
  C 24.22 25.92 23.59 27.77 21.74 29.25
  C 19.43 31.10 18.43 33.90 17.78 36.98
  C 16.93 41.01 26.02 45.16 28.76 46.50
  Q 29.09 46.66 29.23 47.02
  Q 29.38 47.43 28.98 47.27
  Q 28.20 46.95 27.62 47.64
  Q 27.28 48.03 27.50 48.51
  Q 29.70 53.30 34.53 51.06
  Q 34.96 50.86 35.39 51.05
  Q 40.53 53.35 42.52 48.38
  A 0.90 0.89 1.9 0 0 41.41 47.20
  Q 40.96 47.34 40.77 47.82
  Q 40.70 48.02 40.86 48.15
  Q 40.97 48.23 41.08 48.31
  Q 41.86 48.85 41.01 49.27
  L 39.97 49.79
  Q 39.35 50.10 39.73 49.52"
/>
<path stroke="#792542" vector-effect="non-scaling-stroke" d="
  M 50.24 25.19
  Q 49.22 24.07 47.38 24.31
  Q 46.94 24.37 47.19 24.74
  L 49.06 27.53
  A 0.96 0.95 -46.0 0 0 50.66 27.50
  Q 53.00 23.78 52.59 19.06
  Q 52.50 18.04 52.40 19.06
  Q 52.10 22.15 50.82 25.09
  Q 50.60 25.60 50.24 25.19"
/>
<path stroke="#792542" vector-effect="non-scaling-stroke" d="
  M 19.17 25.10
  Q 17.69 22.28 17.61 19.32
  Q 17.61 19.19 17.48 19.18
  L 17.47 19.18
  Q 17.33 19.17 17.32 19.31
  Q 16.88 23.69 19.43 27.61
  A 0.67 0.67 0.0 0 0 20.29 27.84
  Q 21.56 27.21 21.75 25.92
  Q 21.82 25.47 22.22 25.25
  L 23.05 24.80
  Q 23.59 24.50 23.00 24.34
  Q 20.78 23.72 19.79 25.14
  Q 19.45 25.62 19.17 25.10"
/>
<path stroke="#792542" vector-effect="non-scaling-stroke" d="
  M 22.22 22.13
  Q 23.36 22.68 24.50 23.04
  Q 25.40 23.32 24.69 22.70
  Q 22.80 21.06 20.47 21.39
  Q 19.77 21.49 20.42 21.76
  Q 20.85 21.94 21.29 21.93
  Q 21.78 21.92 22.22 22.13"
/>
<path stroke="#792542" vector-effect="non-scaling-stroke" d="
  M 45.30 23.14
  L 49.25 21.63
  Q 49.88 21.38 49.21 21.27
  C 48.00 21.07 45.93 21.94 45.11 22.86
  Q 44.65 23.39 45.30 23.14"
/>
<path stroke="#792542" vector-effect="non-scaling-stroke" d="
  M 25.75 47.13
  Q 26.34 47.14 26.88 46.95
  Q 27.36 46.78 26.95 46.48
  Q 26.61 46.23 26.21 46.29
  Q 25.43 46.43 24.98 47.03
  Q 24.64 47.48 25.20 47.39
  Q 25.52 47.34 25.75 47.13"
/>
<path stroke="#792542" vector-effect="non-scaling-stroke" d="
  M 44.74 47.47
  Q 45.46 47.77 45.06 47.10
  Q 44.60 46.35 43.68 46.29
  Q 43.50 46.27 43.34 46.37
  Q 42.84 46.69 43.39 46.91
  L 44.74 47.47"
/>
<path stroke="#792542" vector-effect="non-scaling-stroke" d="
  M 35.51 52.00
  A 1.38 1.37 41.4 0 0 34.16 52.08
  Q 33.22 52.67 32.12 52.62
  Q 30.22 52.54 31.81 53.58
  Q 35.47 55.97 38.99 53.01
  A 0.21 0.20 22.4 0 0 38.84 52.65
  Q 37.13 52.80 35.51 52.00"
/>
<path stroke="#792542" vector-effect="non-scaling-stroke" d="
  M 37.67 28.67
  L 38.34 30.51
  Q 38.60 31.20 38.82 30.50
  C 39.56 28.21 37.25 25.03 35.52 23.43
  Q 34.98 22.93 34.46 23.45
  C 33.22 24.70 30.24 28.62 31.17 30.30
  Q 31.61 31.10 31.84 30.21
  L 32.02 29.51
  Q 32.59 27.29 33.35 29.45
  L 34.58 33.00
  Q 35.04 34.33 35.39 32.97
  Q 35.95 30.74 37.06 28.63
  Q 37.41 27.97 37.67 28.67"
/>
<path stroke="#792542" vector-effect="non-scaling-stroke" d="
  M 37.64 39.97
  Q 39.65 35.67 43.13 32.50
  A 0.02 0.02 0.0 0 0 43.10 32.47
  Q 38.25 34.73 37.56 40.02
  Q 37.55 40.08 37.59 40.10
  Q 37.60 40.11 37.61 40.11
  Q 37.68 40.16 37.63 40.09
  Q 37.61 40.06 37.62 40.03
  Q 37.63 39.99 37.64 39.97"
/>
<path stroke="#792542" vector-effect="non-scaling-stroke" d="
  M 32.39 40.61
  A 0.01 0.01 0.0 0 1 32.38 40.62
  Q 32.38 40.62 32.38 40.63
  Q 32.42 40.71 32.42 40.62
  Q 31.98 35.35 27.69 32.99
  Q 26.78 32.49 27.53 33.20
  Q 30.35 35.91 32.39 40.61"
/>
<path stroke="#792542" vector-effect="non-scaling-stroke" d="
  M 28.99 42.63
  Q 30.91 42.41 31.23 44.33
  Q 31.25 44.42 31.34 44.41
  L 31.61 44.41
  Q 31.74 44.40 31.73 44.27
  C 31.66 38.57 27.63 37.15 22.89 36.75
  Q 22.21 36.69 22.77 37.08
  Q 23.96 37.89 24.39 39.31
  C 24.98 41.27 26.85 42.88 28.99 42.63"
/>
<path stroke="#792542" vector-effect="non-scaling-stroke" d="
  M 40.60 42.59
  C 45.02 43.25 44.68 39.28 46.90 37.27
  Q 47.37 36.85 46.74 36.87
  C 42.21 37.04 38.17 39.04 38.23 44.14
  Q 38.25 45.08 38.69 44.25
  Q 38.83 44.00 38.90 43.71
  A 1.53 1.53 0.0 0 1 40.60 42.59"
/>
<path stroke="#792542" vector-effect="non-scaling-stroke" d="
  M 33.88 48.96
  L 34.51 50.00
  Q 34.98 50.77 35.45 50.00
  L 36.20 48.77
  A 0.84 0.83 17.4 0 1 36.96 48.38
  Q 37.53 48.42 37.80 47.94
  Q 38.31 47.01 37.25 47.00
  L 32.53 46.96
  A 0.57 0.56 -14.9 0 0 32.03 47.81
  Q 32.36 48.35 33.02 48.42
  Q 33.58 48.47 33.88 48.96"
/>
<path stroke="#792542" vector-effect="non-scaling-stroke" d="
  M 27.78 40.92
  Q 26.40 40.18 25.93 38.07
  Q 25.92 38.00 25.86 38.02
  L 25.39 38.17
  Q 25.00 38.28 25.10 38.68
  Q 25.83 41.50 28.25 42.09
  Q 29.01 42.28 29.55 41.72
  Q 30.01 41.24 29.78 40.63
  Q 29.61 40.16 29.23 40.49
  L 28.84 40.81
  A 0.96 0.95 38.8 0 1 27.78 40.92"
/>
<path stroke="#792542" vector-effect="non-scaling-stroke" d="
  M 43.00 40.22
  C 42.56 41.02 41.72 41.26 40.91 40.78
  Q 39.62 40.01 40.24 41.39
  Q 40.75 42.52 42.03 42.01
  Q 44.40 41.07 44.67 38.54
  Q 44.69 38.32 44.47 38.27
  Q 44.32 38.24 44.18 38.26
  Q 43.85 38.30 43.74 38.61
  Q 43.44 39.44 43.00 40.22"
/>
</g>
<path fill="#c13036" d="
  M 0.00 0.00
  L 70.00 0.00
  L 70.00 70.00
  L 0.00 70.00
  L 0.00 0.00
  Z
  M 17.81 42.64
  Q 17.52 42.58 17.46 42.97
  A 0.46 0.42 -56.4 0 0 17.50 43.23
  C 18.54 45.38 21.86 50.15 24.68 50.41
  C 28.25 50.74 28.49 53.22 30.97 54.83
  Q 33.24 56.31 34.50 58.57
  A 0.44 0.44 0.0 0 0 35.29 58.53
  Q 35.90 57.13 37.20 56.20
  Q 39.70 54.41 41.71 52.11
  Q 43.20 50.41 45.24 50.51
  Q 45.83 50.54 46.33 50.21
  Q 50.33 47.63 52.55 43.10
  A 0.35 0.34 9.2 0 0 52.19 42.61
  Q 52.04 42.63 51.88 42.67
  Q 50.79 42.96 51.58 42.15
  C 55.17 38.50 52.88 34.44 51.57 30.49
  A 1.80 1.76 48.8 0 1 51.64 29.19
  Q 54.98 21.92 53.74 13.92
  A 0.92 0.92 0.0 0 0 52.30 13.31
  Q 47.76 16.54 42.59 20.34
  Q 41.33 21.27 40.49 21.07
  C 36.73 20.21 33.01 20.28 29.28 21.03
  A 1.78 1.77 57.5 0 1 27.86 20.71
  L 17.57 13.13
  A 0.67 0.67 0.0 0 0 16.63 13.28
  Q 16.14 13.96 16.01 14.83
  Q 14.96 21.83 18.28 29.37
  A 1.64 1.62 -46.8 0 1 18.31 30.61
  Q 17.12 33.74 16.42 36.60
  Q 15.76 39.29 18.18 42.01
  Q 18.97 42.91 17.81 42.64
  Z"
/>
<path fill="#30194d" d="
  M 17.81 42.64
  Q 18.97 42.91 18.18 42.01
  Q 15.76 39.29 16.42 36.60
  Q 17.12 33.74 18.31 30.61
  A 1.64 1.62 -46.8 0 0 18.28 29.37
  Q 14.96 21.83 16.01 14.83
  Q 16.14 13.96 16.63 13.28
  A 0.67 0.67 0.0 0 1 17.57 13.13
  L 27.86 20.71
  A 1.78 1.77 57.5 0 0 29.28 21.03
  C 33.01 20.28 36.73 20.21 40.49 21.07
  Q 41.33 21.27 42.59 20.34
  Q 47.76 16.54 52.30 13.31
  A 0.92 0.92 0.0 0 1 53.74 13.92
  Q 54.98 21.92 51.64 29.19
  A 1.80 1.76 48.8 0 0 51.57 30.49
  C 52.88 34.44 55.17 38.50 51.58 42.15
  Q 50.79 42.96 51.88 42.67
  Q 52.04 42.63 52.19 42.61
  A 0.35 0.34 9.2 0 1 52.55 43.10
  Q 50.33 47.63 46.33 50.21
  Q 45.83 50.54 45.24 50.51
  Q 43.20 50.41 41.71 52.11
  Q 39.70 54.41 37.20 56.20
  Q 35.90 57.13 35.29 58.53
  A 0.44 0.44 0.0 0 1 34.50 58.57
  Q 33.24 56.31 30.97 54.83
  C 28.49 53.22 28.25 50.74 24.68 50.41
  C 21.86 50.15 18.54 45.38 17.50 43.23
  A 0.46 0.42 -56.4 0 1 17.46 42.97
  Q 17.52 42.58 17.81 42.64
  Z
  M 39.73 49.52
  Q 39.90 49.25 40.15 49.09
  Q 40.64 48.77 40.61 48.18
  Q 40.60 48.00 40.44 47.93
  Q 39.75 47.64 40.37 47.23
  C 44.30 44.61 48.42 43.45 51.48 39.58
  C 53.28 37.30 51.10 33.21 49.94 31.10
  C 49.01 29.39 47.17 28.63 46.13 27.01
  C 45.41 25.88 44.05 25.30 42.84 24.82
  A 0.57 0.57 0.0 0 1 42.66 23.87
  Q 47.10 19.67 51.29 15.19
  Q 51.44 15.03 51.28 14.87
  L 51.28 14.86
  Q 51.15 14.73 51.02 14.85
  Q 46.46 18.63 41.61 22.55
  A 1.41 1.41 0.0 0 1 40.30 22.79
  Q 34.99 21.08 29.58 22.76
  A 1.28 1.27 55.4 0 1 28.41 22.54
  L 19.15 15.00
  A 0.25 0.24 40.4 0 0 18.82 15.02
  L 18.64 15.21
  Q 18.61 15.25 18.66 15.29
  L 26.92 23.37
  Q 28.06 24.49 26.56 25.05
  C 24.22 25.92 23.59 27.77 21.74 29.25
  C 19.43 31.10 18.43 33.90 17.78 36.98
  C 16.93 41.01 26.02 45.16 28.76 46.50
  Q 29.09 46.66 29.23 47.02
  Q 29.38 47.43 28.98 47.27
  Q 28.20 46.95 27.62 47.64
  Q 27.28 48.03 27.50 48.51
  Q 29.70 53.30 34.53 51.06
  Q 34.96 50.86 35.39 51.05
  Q 40.53 53.35 42.52 48.38
  A 0.90 0.89 1.9 0 0 41.41 47.20
  Q 40.96 47.34 40.77 47.82
  Q 40.70 48.02 40.86 48.15
  Q 40.97 48.23 41.08 48.31
  Q 41.86 48.85 41.01 49.27
  L 39.97 49.79
  Q 39.35 50.10 39.73 49.52
  Z
  M 50.24 25.19
  Q 49.22 24.07 47.38 24.31
  Q 46.94 24.37 47.19 24.74
  L 49.06 27.53
  A 0.96 0.95 -46.0 0 0 50.66 27.50
  Q 53.00 23.78 52.59 19.06
  Q 52.50 18.04 52.40 19.06
  Q 52.10 22.15 50.82 25.09
  Q 50.60 25.60 50.24 25.19
  Z
  M 19.17 25.10
  Q 17.69 22.28 17.61 19.32
  Q 17.61 19.19 17.48 19.18
  L 17.47 19.18
  Q 17.33 19.17 17.32 19.31
  Q 16.88 23.69 19.43 27.61
  A 0.67 0.67 0.0 0 0 20.29 27.84
  Q 21.56 27.21 21.75 25.92
  Q 21.82 25.47 22.22 25.25
  L 23.05 24.80
  Q 23.59 24.50 23.00 24.34
  Q 20.78 23.72 19.79 25.14
  Q 19.45 25.62 19.17 25.10
  Z
  M 22.22 22.13
  Q 23.36 22.68 24.50 23.04
  Q 25.40 23.32 24.69 22.70
  Q 22.80 21.06 20.47 21.39
  Q 19.77 21.49 20.42 21.76
  Q 20.85 21.94 21.29 21.93
  Q 21.78 21.92 22.22 22.13
  Z
  M 45.30 23.14
  L 49.25 21.63
  Q 49.88 21.38 49.21 21.27
  C 48.00 21.07 45.93 21.94 45.11 22.86
  Q 44.65 23.39 45.30 23.14
  Z
  M 25.75 47.13
  Q 26.34 47.14 26.88 46.95
  Q 27.36 46.78 26.95 46.48
  Q 26.61 46.23 26.21 46.29
  Q 25.43 46.43 24.98 47.03
  Q 24.64 47.48 25.20 47.39
  Q 25.52 47.34 25.75 47.13
  Z
  M 44.74 47.47
  Q 45.46 47.77 45.06 47.10
  Q 44.60 46.35 43.68 46.29
  Q 43.50 46.27 43.34 46.37
  Q 42.84 46.69 43.39 46.91
  L 44.74 47.47
  Z
  M 35.51 52.00
  A 1.38 1.37 41.4 0 0 34.16 52.08
  Q 33.22 52.67 32.12 52.62
  Q 30.22 52.54 31.81 53.58
  Q 35.47 55.97 38.99 53.01
  A 0.21 0.20 22.4 0 0 38.84 52.65
  Q 37.13 52.80 35.51 52.00
  Z"
/>
<path fill="#c13036" d="
  M 39.97 49.79
  L 41.01 49.27
  Q 41.86 48.85 41.08 48.31
  Q 40.97 48.23 40.86 48.15
  Q 40.70 48.02 40.77 47.82
  Q 40.96 47.34 41.41 47.20
  A 0.90 0.89 1.9 0 1 42.52 48.38
  Q 40.53 53.35 35.39 51.05
  Q 34.96 50.86 34.53 51.06
  Q 29.70 53.30 27.50 48.51
  Q 27.28 48.03 27.62 47.64
  Q 28.20 46.95 28.98 47.27
  Q 29.38 47.43 29.23 47.02
  Q 29.09 46.66 28.76 46.50
  C 26.02 45.16 16.93 41.01 17.78 36.98
  C 18.43 33.90 19.43 31.10 21.74 29.25
  C 23.59 27.77 24.22 25.92 26.56 25.05
  Q 28.06 24.49 26.92 23.37
  L 18.66 15.29
  Q 18.61 15.25 18.64 15.21
  L 18.82 15.02
  A 0.25 0.24 40.4 0 1 19.15 15.00
  L 28.41 22.54
  A 1.28 1.27 55.4 0 0 29.58 22.76
  Q 34.99 21.08 40.30 22.79
  A 1.41 1.41 0.0 0 0 41.61 22.55
  Q 46.46 18.63 51.02 14.85
  Q 51.15 14.73 51.28 14.86
  L 51.28 14.87
  Q 51.44 15.03 51.29 15.19
  Q 47.10 19.67 42.66 23.87
  A 0.57 0.57 0.0 0 0 42.84 24.82
  C 44.05 25.30 45.41 25.88 46.13 27.01
  C 47.17 28.63 49.01 29.39 49.94 31.10
  C 51.10 33.21 53.28 37.30 51.48 39.58
  C 48.42 43.45 44.30 44.61 40.37 47.23
  Q 39.75 47.64 40.44 47.93
  Q 40.60 48.00 40.61 48.18
  Q 40.64 48.77 40.15 49.09
  Q 39.90 49.25 39.73 49.52
  Q 39.35 50.10 39.97 49.79
  Z
  M 37.67 28.67
  L 38.34 30.51
  Q 38.60 31.20 38.82 30.50
  C 39.56 28.21 37.25 25.03 35.52 23.43
  Q 34.98 22.93 34.46 23.45
  C 33.22 24.70 30.24 28.62 31.17 30.30
  Q 31.61 31.10 31.84 30.21
  L 32.02 29.51
  Q 32.59 27.29 33.35 29.45
  L 34.58 33.00
  Q 35.04 34.33 35.39 32.97
  Q 35.95 30.74 37.06 28.63
  Q 37.41 27.97 37.67 28.67
  Z
  M 37.64 39.97
  Q 39.65 35.67 43.13 32.50
  A 0.02 0.02 0.0 0 0 43.10 32.47
  Q 38.25 34.73 37.56 40.02
  Q 37.55 40.08 37.59 40.10
  Q 37.60 40.11 37.61 40.11
  Q 37.68 40.16 37.63 40.09
  Q 37.61 40.06 37.62 40.03
  Q 37.63 39.99 37.64 39.97
  Z
  M 32.39 40.61
  A 0.01 0.01 0.0 0 1 32.38 40.62
  Q 32.38 40.62 32.38 40.63
  Q 32.42 40.71 32.42 40.62
  Q 31.98 35.35 27.69 32.99
  Q 26.78 32.49 27.53 33.20
  Q 30.35 35.91 32.39 40.61
  Z
  M 28.99 42.63
  Q 30.91 42.41 31.23 44.33
  Q 31.25 44.42 31.34 44.41
  L 31.61 44.41
  Q 31.74 44.40 31.73 44.27
  C 31.66 38.57 27.63 37.15 22.89 36.75
  Q 22.21 36.69 22.77 37.08
  Q 23.96 37.89 24.39 39.31
  C 24.98 41.27 26.85 42.88 28.99 42.63
  Z
  M 40.60 42.59
  C 45.02 43.25 44.68 39.28 46.90 37.27
  Q 47.37 36.85 46.74 36.87
  C 42.21 37.04 38.17 39.04 38.23 44.14
  Q 38.25 45.08 38.69 44.25
  Q 38.83 44.00 38.90 43.71
  A 1.53 1.53 0.0 0 1 40.60 42.59
  Z
  M 33.88 48.96
  L 34.51 50.00
  Q 34.98 50.77 35.45 50.00
  L 36.20 48.77
  A 0.84 0.83 17.4 0 1 36.96 48.38
  Q 37.53 48.42 37.80 47.94
  Q 38.31 47.01 37.25 47.00
  L 32.53 46.96
  A 0.57 0.56 -14.9 0 0 32.03 47.81
  Q 32.36 48.35 33.02 48.42
  Q 33.58 48.47 33.88 48.96
  Z"
/>
<path fill="#c13036" d="
  M 50.82 25.09
  Q 52.10 22.15 52.40 19.06
  Q 52.50 18.04 52.59 19.06
  Q 53.00 23.78 50.66 27.50
  A 0.96 0.95 -46.0 0 1 49.06 27.53
  L 47.19 24.74
  Q 46.94 24.37 47.38 24.31
  Q 49.22 24.07 50.24 25.19
  Q 50.60 25.60 50.82 25.09
  Z"
/>
<path fill="#c13036" d="
  M 19.79 25.14
  Q 20.78 23.72 23.00 24.34
  Q 23.59 24.50 23.05 24.80
  L 22.22 25.25
  Q 21.82 25.47 21.75 25.92
  Q 21.56 27.21 20.29 27.84
  A 0.67 0.67 0.0 0 1 19.43 27.61
  Q 16.88 23.69 17.32 19.31
  Q 17.33 19.17 17.47 19.18
  L 17.48 19.18
  Q 17.61 19.19 17.61 19.32
  Q 17.69 22.28 19.17 25.10
  Q 19.45 25.62 19.79 25.14
  Z"
/>
<path fill="#c13036" d="
  M 21.29 21.93
  Q 20.85 21.94 20.42 21.76
  Q 19.77 21.49 20.47 21.39
  Q 22.80 21.06 24.69 22.70
  Q 25.40 23.32 24.50 23.04
  Q 23.36 22.68 22.22 22.13
  Q 21.78 21.92 21.29 21.93
  Z"
/>
<path fill="#c13036" d="
  M 45.11 22.86
  C 45.93 21.94 48.00 21.07 49.21 21.27
  Q 49.88 21.38 49.25 21.63
  L 45.30 23.14
  Q 44.65 23.39 45.11 22.86
  Z"
/>
<path fill="#30194d" d="
  M 37.06 28.63
  Q 35.95 30.74 35.39 32.97
  Q 35.04 34.33 34.58 33.00
  L 33.35 29.45
  Q 32.59 27.29 32.02 29.51
  L 31.84 30.21
  Q 31.61 31.10 31.17 30.30
  C 30.24 28.62 33.22 24.70 34.46 23.45
  Q 34.98 22.93 35.52 23.43
  C 37.25 25.03 39.56 28.21 38.82 30.50
  Q 38.60 31.20 38.34 30.51
  L 37.67 28.67
  Q 37.41 27.97 37.06 28.63
  Z"
/>
<path fill="#30194d" d="
  M 37.62 40.03
  Q 37.61 40.06 37.63 40.09
  Q 37.68 40.16 37.61 40.11
  Q 37.60 40.11 37.59 40.10
  Q 37.55 40.08 37.56 40.02
  Q 38.25 34.73 43.10 32.47
  A 0.02 0.02 0.0 0 1 43.13 32.50
  Q 39.65 35.67 37.64 39.97
  Q 37.63 39.99 37.62 40.03
  Z"
/>
<path fill="#30194d" d="
  M 32.39 40.61
  Q 30.35 35.91 27.53 33.20
  Q 26.78 32.49 27.69 32.99
  Q 31.98 35.35 32.42 40.62
  Q 32.42 40.71 32.38 40.63
  Q 32.38 40.62 32.38 40.62
  A 0.01 0.01 0.0 0 0 32.39 40.61
  Z"
/>
<path fill="#30194d" d="
  M 28.99 42.63
  C 26.85 42.88 24.98 41.27 24.39 39.31
  Q 23.96 37.89 22.77 37.08
  Q 22.21 36.69 22.89 36.75
  C 27.63 37.15 31.66 38.57 31.73 44.27
  Q 31.74 44.40 31.61 44.41
  L 31.34 44.41
  Q 31.25 44.42 31.23 44.33
  Q 30.91 42.41 28.99 42.63
  Z
  M 27.78 40.92
  Q 26.40 40.18 25.93 38.07
  Q 25.92 38.00 25.86 38.02
  L 25.39 38.17
  Q 25.00 38.28 25.10 38.68
  Q 25.83 41.50 28.25 42.09
  Q 29.01 42.28 29.55 41.72
  Q 30.01 41.24 29.78 40.63
  Q 29.61 40.16 29.23 40.49
  L 28.84 40.81
  A 0.96 0.95 38.8 0 1 27.78 40.92
  Z"
/>
<path fill="#30194d" d="
  M 40.60 42.59
  A 1.53 1.53 0.0 0 0 38.90 43.71
  Q 38.83 44.00 38.69 44.25
  Q 38.25 45.08 38.23 44.14
  C 38.17 39.04 42.21 37.04 46.74 36.87
  Q 47.37 36.85 46.90 37.27
  C 44.68 39.28 45.02 43.25 40.60 42.59
  Z
  M 43.00 40.22
  C 42.56 41.02 41.72 41.26 40.91 40.78
  Q 39.62 40.01 40.24 41.39
  Q 40.75 42.52 42.03 42.01
  Q 44.40 41.07 44.67 38.54
  Q 44.69 38.32 44.47 38.27
  Q 44.32 38.24 44.18 38.26
  Q 43.85 38.30 43.74 38.61
  Q 43.44 39.44 43.00 40.22
  Z"
/>
<path fill="#c13036" d="
  M 28.84 40.81
  L 29.23 40.49
  Q 29.61 40.16 29.78 40.63
  Q 30.01 41.24 29.55 41.72
  Q 29.01 42.28 28.25 42.09
  Q 25.83 41.50 25.10 38.68
  Q 25.00 38.28 25.39 38.17
  L 25.86 38.02
  Q 25.92 38.00 25.93 38.07
  Q 26.40 40.18 27.78 40.92
  A 0.96 0.95 38.8 0 0 28.84 40.81
  Z"
/>
<path fill="#c13036" d="
  M 43.00 40.22
  Q 43.44 39.44 43.74 38.61
  Q 43.85 38.30 44.18 38.26
  Q 44.32 38.24 44.47 38.27
  Q 44.69 38.32 44.67 38.54
  Q 44.40 41.07 42.03 42.01
  Q 40.75 42.52 40.24 41.39
  Q 39.62 40.01 40.91 40.78
  C 41.72 41.26 42.56 41.02 43.00 40.22
  Z"
/>
<path fill="#c13036" d="
  M 25.75 47.13
  Q 25.52 47.34 25.20 47.39
  Q 24.64 47.48 24.98 47.03
  Q 25.43 46.43 26.21 46.29
  Q 26.61 46.23 26.95 46.48
  Q 27.36 46.78 26.88 46.95
  Q 26.34 47.14 25.75 47.13
  Z"
/>
<path fill="#c13036" d="
  M 44.74 47.47
  L 43.39 46.91
  Q 42.84 46.69 43.34 46.37
  Q 43.50 46.27 43.68 46.29
  Q 44.60 46.35 45.06 47.10
  Q 45.46 47.77 44.74 47.47
  Z"
/>
<path fill="#30194d" d="
  M 33.02 48.42
  Q 32.36 48.35 32.03 47.81
  A 0.57 0.56 -14.9 0 1 32.53 46.96
  L 37.25 47.00
  Q 38.31 47.01 37.80 47.94
  Q 37.53 48.42 36.96 48.38
  A 0.84 0.83 17.4 0 0 36.20 48.77
  L 35.45 50.00
  Q 34.98 50.77 34.51 50.00
  L 33.88 48.96
  Q 33.58 48.47 33.02 48.42
  Z"
/>
<path fill="#c13036" d="
  M 35.51 52.00
  Q 37.13 52.80 38.84 52.65
  A 0.21 0.20 22.4 0 1 38.99 53.01
  Q 35.47 55.97 31.81 53.58
  Q 30.22 52.54 32.12 52.62
  Q 33.22 52.67 34.16 52.08
  A 1.38 1.37 41.4 0 1 35.51 52.00
  Z"
/>
</svg>
